<mxfile host="app.diagrams.net" modified="2024-03-13T17:55:27.364Z" agent="Mozilla/5.0 (X11; CrOS x86_64 14541.0.0) AppleWebKit/537.36 (KHTML, like Gecko) Chrome/121.0.0.0 Safari/537.36" version="24.0.5" etag="MDuw8qhNVNtsy631VBOG" type="github">
  <diagram name="Page-1" id="KQUBoWq0QQ-740XU0tuJ">
    <mxGraphModel>
      <root>
        <mxCell id="0" />
        <mxCell id="1" parent="0" />
      </root>
    </mxGraphModel>
  </diagram>
</mxfile>
